<svg width="22" height="22" viewBox="0 0 22 22" fill="none" xmlns="http://www.w3.org/2000/svg">
<path d="M20.1667 15.51V18.26C20.1677 18.5153 20.1154 18.768 20.0131 19.0019C19.9108 19.2358 19.7608 19.4458 19.5727 19.6184C19.3846 19.791 19.1625 19.9224 18.9207 20.0042C18.6788 20.0859 18.4226 20.1163 18.1683 20.0933C15.3476 19.7868 12.6381 18.823 10.2575 17.2792C8.04267 15.8718 6.16488 13.994 4.75749 11.7792C3.2083 9.38778 2.24421 6.66509 1.94332 3.83167C1.92042 3.57819 1.95054 3.3227 2.03178 3.0815C2.11302 2.84029 2.2436 2.61864 2.41519 2.43066C2.58679 2.24268 2.79564 2.09249 3.02846 1.98965C3.26129 1.88681 3.51297 1.83358 3.76749 1.83334H6.51749C6.96235 1.82896 7.39363 1.9865 7.73094 2.27658C8.06824 2.56666 8.28856 2.9695 8.35082 3.41001C8.46689 4.29007 8.68215 5.15417 8.99249 5.98584C9.11582 6.31394 9.14251 6.67051 9.0694 7.01331C8.99629 7.35612 8.82645 7.67078 8.57999 7.92001L7.41582 9.08417C8.72075 11.3791 10.6209 13.2792 12.9158 14.5842L14.08 13.42C14.3292 13.1736 14.6439 13.0037 14.9867 12.9306C15.3295 12.8575 15.6861 12.8842 16.0142 13.0075C16.8458 13.3178 17.7099 13.5331 18.59 13.6492C19.0353 13.712 19.4419 13.9363 19.7326 14.2794C20.0233 14.6225 20.1778 15.0605 20.1667 15.51Z" stroke="white" stroke-linecap="round" stroke-linejoin="round"/>
</svg>
